<mxfile host="app.diagrams.net" agent="Mozilla/5.0 (Macintosh; Intel Mac OS X 10_15_7) AppleWebKit/537.36 (KHTML, like Gecko) Chrome/131.0.0.0 Safari/537.36" version="26.0.11">
  <diagram name="第 1 页" id="6gOTY-HcG_AKJOXkIzXy">
    <mxGraphModel dx="1242" dy="785" grid="0" gridSize="10" guides="1" tooltips="1" connect="1" arrows="1" fold="1" page="1" pageScale="1" pageWidth="827" pageHeight="1169" math="0" shadow="0">
      <root>
        <mxCell id="0" />
        <mxCell id="1" parent="0" />
        <mxCell id="K3o1xGMym-JEygJOtJZj-1" value="运营人员" style="shape=umlActor;verticalLabelPosition=bottom;verticalAlign=top;html=1;" vertex="1" parent="1">
          <mxGeometry x="185" y="206" width="30" height="60" as="geometry" />
        </mxCell>
        <mxCell id="K3o1xGMym-JEygJOtJZj-2" value="" style="rounded=0;whiteSpace=wrap;html=1;" vertex="1" parent="1">
          <mxGeometry x="280" y="65" width="232" height="380" as="geometry" />
        </mxCell>
        <mxCell id="K3o1xGMym-JEygJOtJZj-3" value="商业智能运营模块" style="text;html=1;align=center;verticalAlign=middle;whiteSpace=wrap;rounded=0;" vertex="1" parent="1">
          <mxGeometry x="346.5" y="65" width="99" height="30" as="geometry" />
        </mxCell>
        <mxCell id="K3o1xGMym-JEygJOtJZj-5" value="编辑运营数据图" style="ellipse;whiteSpace=wrap;html=1;" vertex="1" parent="1">
          <mxGeometry x="350" y="305" width="100" height="50" as="geometry" />
        </mxCell>
        <mxCell id="K3o1xGMym-JEygJOtJZj-7" value="" style="endArrow=none;html=1;rounded=0;exitX=1;exitY=0.3333333333333333;exitDx=0;exitDy=0;exitPerimeter=0;entryX=0;entryY=0.5;entryDx=0;entryDy=0;" edge="1" parent="1" source="K3o1xGMym-JEygJOtJZj-1" target="K3o1xGMym-JEygJOtJZj-5">
          <mxGeometry width="50" height="50" relative="1" as="geometry">
            <mxPoint x="142" y="385" as="sourcePoint" />
            <mxPoint x="224" y="370" as="targetPoint" />
          </mxGeometry>
        </mxCell>
        <mxCell id="K3o1xGMym-JEygJOtJZj-10" value="查看运营数据" style="ellipse;whiteSpace=wrap;html=1;" vertex="1" parent="1">
          <mxGeometry x="350" y="118" width="100" height="50" as="geometry" />
        </mxCell>
        <mxCell id="K3o1xGMym-JEygJOtJZj-28" value="" style="endArrow=none;html=1;rounded=0;entryX=0;entryY=0.5;entryDx=0;entryDy=0;exitX=1;exitY=0.3333333333333333;exitDx=0;exitDy=0;exitPerimeter=0;" edge="1" parent="1" source="K3o1xGMym-JEygJOtJZj-1" target="K3o1xGMym-JEygJOtJZj-10">
          <mxGeometry width="50" height="50" relative="1" as="geometry">
            <mxPoint x="146" y="375" as="sourcePoint" />
            <mxPoint x="252" y="473" as="targetPoint" />
          </mxGeometry>
        </mxCell>
        <mxCell id="K3o1xGMym-JEygJOtJZj-30" value="创建运营数据仪表盘" style="ellipse;whiteSpace=wrap;html=1;" vertex="1" parent="1">
          <mxGeometry x="350" y="203" width="100" height="50" as="geometry" />
        </mxCell>
        <mxCell id="K3o1xGMym-JEygJOtJZj-31" value="" style="endArrow=none;html=1;rounded=0;entryX=0;entryY=0.5;entryDx=0;entryDy=0;exitX=1;exitY=0.3333333333333333;exitDx=0;exitDy=0;exitPerimeter=0;" edge="1" parent="1" source="K3o1xGMym-JEygJOtJZj-1" target="K3o1xGMym-JEygJOtJZj-30">
          <mxGeometry width="50" height="50" relative="1" as="geometry">
            <mxPoint x="157" y="227" as="sourcePoint" />
            <mxPoint x="360" y="153" as="targetPoint" />
          </mxGeometry>
        </mxCell>
      </root>
    </mxGraphModel>
  </diagram>
</mxfile>
